<svg xmlns="http://www.w3.org/2000/svg" viewBox="0 0 1024 1024">
  <defs>
    <linearGradient id="sky" x1="0" y1="0" x2="0" y2="1">
      <stop offset="0" stop-color="#1c2547"/>
      <stop offset="0.45" stop-color="#5b5a8c"/>
      <stop offset="0.72" stop-color="#d98a6a"/>
      <stop offset="1" stop-color="#f4c07a"/>
    </linearGradient>
    <radialGradient id="glow" cx="0.5" cy="0.62" r="0.42">
      <stop offset="0" stop-color="#ffe2a8" stop-opacity="0.75"/>
      <stop offset="1" stop-color="#ffe2a8" stop-opacity="0"/>
    </radialGradient>
    <linearGradient id="far" x1="0" y1="0" x2="0" y2="1">
      <stop offset="0" stop-color="#6c5d86"/>
      <stop offset="1" stop-color="#3d3a63"/>
    </linearGradient>
    <linearGradient id="near" x1="0" y1="0" x2="0" y2="1">
      <stop offset="0" stop-color="#2a2a4c"/>
      <stop offset="1" stop-color="#14142a"/>
    </linearGradient>
    <linearGradient id="sheen" x1="0" y1="0" x2="0" y2="1">
      <stop offset="0" stop-color="#fff" stop-opacity="0.14"/>
      <stop offset="0.5" stop-color="#fff" stop-opacity="0"/>
    </linearGradient>
  </defs>
  <rect width="1024" height="1024" fill="url(#sky)"/>
  <rect width="1024" height="1024" fill="url(#glow)"/>
  <circle cx="512" cy="600" r="118" fill="#ffe7b8"/>
  <path d="M0 700 L150 560 L250 630 L400 470 L520 590 L640 500 L780 610 L900 520 L1024 600 V1024 H0 Z" fill="url(#far)"/>
  <path d="M0 800 L180 660 L330 760 L470 650 L620 780 L760 690 L1024 830 V1024 H0 Z" fill="url(#near)"/>
  <rect width="1024" height="1024" fill="url(#sheen)"/>
</svg>
